<svg class="icon" viewBox="0 0 1024 1024" xmlns="http://www.w3.org/2000/svg" width="200" height="200"><defs><style/></defs><path d="M512 0C229.216 0 0 229.216 0 512c0 282.768 229.216 512 512 512 282.752 0 512-229.232 512-512C1024 229.216 794.752 0 512 0zm0 992C246.896 992 32 777.088 32 512 32 246.896 246.896 32 512 32c265.056 0 480 214.896 480 480 0 265.088-214.944 480-480 480z" fill="#707070"/><path d="M430.88 251.632c-6.256-6.256-16.368-6.256-22.624 0s-6.256 16.384 0 22.624L646 512 408.256 749.76c-6.256 6.256-6.256 16.368 0 22.624s16.368 6.256 22.624 0l248.912-248.912c3.168-3.152 4.704-7.328 4.656-11.456.048-4.144-1.488-8.304-4.656-11.472L430.88 251.632z" fill="#707070"/></svg>