<svg t="1565267069821" class="icon" viewBox="0 0 1024 1024" version="1.1" xmlns="http://www.w3.org/2000/svg" p-id="3770" width="200" height="200"><path d="M1022.976 511.488C1022.976 229.018 793.958 0 511.488 0S0 229.018 0 511.488s229.018 511.488 511.488 511.488 511.488-229.018 511.488-511.488zM673.69 530.944l-245.146 246.58a26.47 26.47 0 0 1-37.734 0c-10.394-10.497-25.856-29.338 0-61.236L593.92 512 390.81 307.763c-29.133-32.512-10.394-50.79 0-61.235a26.522 26.522 0 0 1 37.734 0L673.69 493.056a26.829 26.829 0 0 1 0 37.888z" p-id="3771"></path></svg>