<svg class="icon" viewBox="0 0 1024 1024" xmlns="http://www.w3.org/2000/svg" width="200" height="200"><defs><style/></defs><path d="M958.577 311.18c0 15.286-5.878 29.523-16.564 40.167L551.624 741.044c-1.393 1.425-2.578 2.537-3.847 3.45l-2.905 2.304c-11.416 11.362-24.849 16.946-39.069 16.946-14.475 0-28.01-5.708-38.11-16.057L79.475 355.31c-10.468-10.613-16.237-24.786-16.237-39.893 0-14.773 5.6-28.727 15.754-39.287 10.186-10.497 24.39-16.54 38.952-16.54 14.382 0 28.01 5.724 38.367 16.143L506.48 629.702l359.428-358.486c10.31-10.248 23.782-15.91 37.994-15.91 14.89 0 28.86 6.052 39.334 17 9.89 10.42 15.34 24.25 15.34 38.874z"/></svg>