<svg class="icon" viewBox="0 0 1024 1024" xmlns="http://www.w3.org/2000/svg" width="200" height="200"><defs><style/></defs><path d="M948.032 902.784L741.056 695.808C797.696 628.928 832 542.528 832 448c0-212.064-171.936-384-384-384S64 235.936 64 448s171.936 384 384 384c94.528 0 180.928-34.304 247.808-90.912l206.976 206.976c14.016 14.016 35.488 15.232 48 2.72 12.48-12.512 11.264-33.984-2.752-48zM448 768c-176.736 0-320-143.264-320-320s143.264-320 320-320 320 143.264 320 320-143.264 320-320 320z"/></svg>