<svg class="icon" viewBox="0 0 1024 1024" xmlns="http://www.w3.org/2000/svg" width="200" height="200"><path d="M272 704a47.84 47.84 0 00-33.936 14.064l-96 96a48 48 0 1067.872 67.872l96-96A48 48 0 00272 704zm-48-192a48 48 0 00-48-48H48a48 48 0 100 96h128a48 48 0 0048-48zm-14.064-369.936a48 48 0 10-67.872 67.872l96 96a48 48 0 1067.872-67.872l-96-96zM752 320a47.84 47.84 0 0033.936-14.064l96-96a48 48 0 10-67.872-67.872l-96 96A48 48 0 00752 320zm33.936 398.064a48 48 0 10-67.872 67.872l96 96a48 48 0 1067.872-67.872l-96-96zM512 800a48 48 0 00-48 48v128a48 48 0 1096 0V848a48 48 0 00-48-48zm464-336H848a48 48 0 100 96h128a48 48 0 100-96zM512 0a48 48 0 00-48 48v128a48 48 0 1096 0V48a48 48 0 00-48-48z"/></svg>