<svg class="icon" viewBox="0 0 1024 1024" xmlns="http://www.w3.org/2000/svg" width="200" height="200"><defs><style/></defs><path d="M63.239 707.87c0-15.286 5.88-29.522 16.564-40.167l390.39-389.696c1.393-1.426 2.577-2.54 3.846-3.45l2.904-2.304c11.416-11.362 24.849-16.945 39.069-16.945 14.476 0 28.01 5.708 38.11 16.056L942.34 663.741c10.467 10.614 16.236 24.786 16.236 39.894 0 14.772-5.6 28.726-15.753 39.286-10.186 10.497-24.39 16.54-38.952 16.54-14.383 0-28.01-5.723-38.367-16.143l-350.169-353.97-359.429 358.486c-10.31 10.249-23.781 15.91-37.993 15.91-14.89 0-28.86-6.051-39.334-17-9.89-10.419-15.34-24.25-15.34-38.874z"/></svg>